<svg width="32" height="32" viewBox="0 0 32 32" fill="none" xmlns="http://www.w3.org/2000/svg">
<path d="M17.4134 0.446724C18.5857 -0.374676 20.2053 -0.028916 20.9443 1.20143C21.4807 2.09128 22.5115 2.55288 23.5283 2.3563C24.9313 2.08601 26.2713 3.06362 26.4495 4.48879C26.5788 5.5208 27.3336 6.36326 28.3416 6.60021C29.7341 6.92666 30.5605 8.36762 30.1464 9.74013C29.8459 10.7353 30.1953 11.8129 31.02 12.4413C32.1591 13.3083 32.3321 14.9616 31.3974 16.0481C30.7195 16.8344 30.6024 17.9629 31.1021 18.8738C31.7922 20.1323 31.2803 21.7136 29.9857 22.3227C29.0475 22.7649 28.4849 23.7461 28.5723 24.7833C28.6928 26.2138 27.5851 27.4494 26.156 27.4792C25.12 27.5003 24.208 28.1655 23.869 29.1484C23.4008 30.5051 21.8878 31.1808 20.5705 30.6227C19.6165 30.219 18.5124 30.4542 17.8048 31.2141C16.8281 32.262 15.1719 32.262 14.1952 31.2141C13.4876 30.4559 12.3835 30.219 11.4295 30.6227C10.1122 31.1808 8.60095 30.5033 8.13098 29.1484C7.79204 28.1655 6.8783 27.4985 5.844 27.4792C4.41486 27.4511 3.30719 26.2155 3.42774 24.7833C3.51509 23.7461 2.95077 22.7649 2.01432 22.3227C0.719705 21.7119 0.209546 20.1305 0.897911 18.8738C1.39759 17.9629 1.28053 16.8361 0.602648 16.0481C-0.33206 14.9616 -0.159095 13.3083 0.980026 12.4413C1.80467 11.8129 2.15409 10.7353 1.85358 9.74013C1.43952 8.36587 2.2659 6.92666 3.65836 6.60021C4.66644 6.36326 5.4212 5.5208 5.55049 4.48879C5.72869 3.06362 7.06699 2.08601 8.47167 2.3563C9.48849 2.55288 10.5193 2.09128 11.0557 1.20143C11.7947 -0.0271607 13.4143 -0.372921 14.5866 0.446724C15.4357 1.04171 16.5643 1.04171 17.4134 0.446724Z" fill="#FF5F5F"/>
<path fill-rule="evenodd" clip-rule="evenodd" d="M22.2944 12.4092C22.8048 12.94 22.7882 13.7841 22.2574 14.2944L15.3241 20.9611C15.058 21.217 14.6977 21.3511 14.3291 21.3314C13.9605 21.3118 13.6164 21.1403 13.379 20.8576L9.64568 16.4131C9.17204 15.8493 9.24518 15.0082 9.80903 14.5346C10.3729 14.061 11.2139 14.1341 11.6876 14.698L14.5037 18.0505L20.4091 12.3722C20.9399 11.8618 21.784 11.8784 22.2944 12.4092Z" fill="#F3F4F6"/>
</svg>
